<svg xmlns="http://www.w3.org/2000/svg" viewBox="0 0 140 140"><defs><style>.cls-1{fill:#fff;}</style></defs><g id="Слой_2" data-name="Слой 2"><g id="Слой_1-2" data-name="Слой 1"><path class="cls-1" d="M94.61,71.9C83.3,71.9,74.1,80.39,74.1,90.82s9.2,18.91,20.51,18.91,20.51-8.48,20.51-18.91S105.92,71.9,94.61,71.9Zm0,30.27c-6.79,0-12.31-5.1-12.31-11.35s5.52-11.35,12.31-11.35,12.3,5.09,12.3,11.35S101.39,102.17,94.61,102.17Z"/><path class="cls-1" d="M116.9,63.7c15.47-5,23.1-19,23.1-33.42a3.86,3.86,0,0,0-3.16-3.68,4.22,4.22,0,0,0-4.61,2A24,24,0,0,1,124.44,37a.61.61,0,0,1-.29.2,27.78,27.78,0,0,1-15.07,4.42H89.8A33.64,33.64,0,0,0,70,47.93a33.64,33.64,0,0,0-19.8-6.3H30.92c-9.77,0-18.86-5.12-23.15-13a4.22,4.22,0,0,0-4.61-2A3.86,3.86,0,0,0,0,30.28C0,44.66,7.57,58.74,23.1,63.7,14.22,69.92,8.48,79.76,8.48,90.82c0,18.77,16.56,34.05,36.91,34.05a38.8,38.8,0,0,0,10.44-1.44l10.76,14.89a4.3,4.3,0,0,0,6.82,0l10.76-14.89a38.8,38.8,0,0,0,10.44,1.44c20.35,0,36.91-15.28,36.91-34.05C131.52,79.76,125.78,69.92,116.9,63.7ZM11,43.29A36.41,36.41,0,0,0,30.92,49.2H50.2a24.78,24.78,0,0,1,16.9,6.46,4.34,4.34,0,0,0,5.8,0A24.78,24.78,0,0,1,89.8,49.2h19.28A36.41,36.41,0,0,0,129,43.29c-5,11.19-16.35,16-27.41,14.09a40.21,40.21,0,0,0-7-.61A38.44,38.44,0,0,0,70,65.62a38.44,38.44,0,0,0-24.61-8.85,40.12,40.12,0,0,0-7,.61h0C27.85,59.27,16.14,54.74,11,43.29ZM70,129.4l-6.51-9A36.87,36.87,0,0,0,70,116a36.87,36.87,0,0,0,6.51,4.37Zm24.61-12.1a29.71,29.71,0,0,1-21.52-9.17,4.35,4.35,0,0,0-6.18,0,29.71,29.71,0,0,1-21.52,9.17c-15.83,0-28.71-11.88-28.71-26.48S29.56,64.33,45.39,64.33A29.71,29.71,0,0,1,66.91,73.5a4.35,4.35,0,0,0,6.18,0,29.71,29.71,0,0,1,21.52-9.17c15.83,0,28.71,11.88,28.71,26.49S110.44,117.3,94.61,117.3Z"/><ellipse class="cls-1" cx="45.39" cy="90.82" rx="4.1" ry="3.78"/><ellipse class="cls-1" cx="94.61" cy="90.82" rx="4.1" ry="3.78"/><path class="cls-1" d="M45.39,71.9c-11.31,0-20.51,8.49-20.51,18.92s9.2,18.91,20.51,18.91S65.9,101.25,65.9,90.82,56.7,71.9,45.39,71.9Zm0,30.27c-6.78,0-12.3-5.1-12.3-11.35s5.52-11.35,12.3-11.35S57.7,84.56,57.7,90.82,52.18,102.17,45.39,102.17Z"/><path class="cls-1" d="M116.9,63.7c15.47-5,23.1-19,23.1-33.42a3.86,3.86,0,0,0-3.16-3.68,4.22,4.22,0,0,0-4.61,2A24,24,0,0,1,124.44,37a.61.61,0,0,1-.29.2,27.78,27.78,0,0,1-15.07,4.42H89.8A33.64,33.64,0,0,0,70,47.93a33.64,33.64,0,0,0-19.8-6.3H30.92c-9.77,0-18.86-5.12-23.15-13a4.22,4.22,0,0,0-4.61-2A3.86,3.86,0,0,0,0,30.28C0,44.66,7.57,58.74,23.1,63.7,14.22,69.92,8.48,79.76,8.48,90.82c0,18.77,16.56,34.05,36.91,34.05a38.8,38.8,0,0,0,10.44-1.44l10.76,14.89a4.3,4.3,0,0,0,6.82,0l10.76-14.89a38.8,38.8,0,0,0,10.44,1.44c20.35,0,36.91-15.28,36.91-34.05C131.52,79.76,125.78,69.92,116.9,63.7ZM11,43.29A36.41,36.41,0,0,0,30.92,49.2H50.2a24.78,24.78,0,0,1,16.9,6.46,4.34,4.34,0,0,0,5.8,0A24.78,24.78,0,0,1,89.8,49.2h19.28A36.41,36.41,0,0,0,129,43.29c-5,11.19-16.35,16-27.41,14.09a40.21,40.21,0,0,0-7-.61A38.44,38.44,0,0,0,70,65.62a38.44,38.44,0,0,0-24.61-8.85,40.12,40.12,0,0,0-7,.61h0C27.85,59.27,16.14,54.74,11,43.29ZM70,129.4l-6.51-9A36.87,36.87,0,0,0,70,116a36.87,36.87,0,0,0,6.51,4.37Zm24.61-12.1a29.71,29.71,0,0,1-21.52-9.17,4.35,4.35,0,0,0-6.18,0,29.71,29.71,0,0,1-21.52,9.17c-15.83,0-28.71-11.88-28.71-26.48S29.56,64.33,45.39,64.33A29.71,29.71,0,0,1,66.91,73.5a4.35,4.35,0,0,0,6.18,0,29.71,29.71,0,0,1,21.52-9.17c15.83,0,28.71,11.88,28.71,26.49S110.44,117.3,94.61,117.3Z"/><ellipse class="cls-1" cx="45.39" cy="90.82" rx="4.1" ry="3.78"/><ellipse class="cls-1" cx="94.61" cy="90.82" rx="4.1" ry="3.78"/><path class="cls-1" d="M94.61,71.9C83.3,71.9,74.1,80.39,74.1,90.82s9.2,18.91,20.51,18.91,20.51-8.48,20.51-18.91S105.92,71.9,94.61,71.9Zm0,30.27c-6.79,0-12.31-5.1-12.31-11.35s5.52-11.35,12.31-11.35,12.3,5.09,12.3,11.35S101.39,102.17,94.61,102.17Z"/><path class="cls-1" d="M45.39,71.9c-11.31,0-20.51,8.49-20.51,18.92s9.2,18.91,20.51,18.91S65.9,101.25,65.9,90.82,56.7,71.9,45.39,71.9Zm0,30.27c-6.78,0-12.3-5.1-12.3-11.35s5.52-11.35,12.3-11.35S57.7,84.56,57.7,90.82,52.18,102.17,45.39,102.17Z"/><path class="cls-1" d="M121.8,18.43,71.55.25a4.14,4.14,0,0,0-2.82,0L45.59,8.62a1.65,1.65,0,0,0-1,2.08,1.57,1.57,0,0,0,2,1L69.78,3.33a1.08,1.08,0,0,1,.71,0l50.25,18.19a.7.7,0,0,1,0,1.36L103.82,29V24.2c0-1.83-1.94-2.75-3.62-3.3-12.43-4.11-57.67-3.81-62.91,1.53a2.38,2.38,0,0,0-.77,1.77V29l-17-6.15a.7.7,0,0,1,0-1.36l20.11-7.28a1.65,1.65,0,0,0,1-2.09,1.58,1.58,0,0,0-2-1L18.48,18.43a4,4,0,0,0,0,7.54l18.1,6.55v16H60.13a.59.59,0,0,1,0-.13c0-1-.21-2-.17-2.92H39.77V24.58c7.21-4.26,53.6-4.28,60.8,0,0,7.37,0,6.89.07,7.21V45.44H80.09c-.1.92-.14,1.86-.26,2.78a.62.62,0,0,1-.09.27h24.08v-16l14-5v0a1.26,1.26,0,0,1,.53-.15,5.54,5.54,0,0,1,.57-.21,1.24,1.24,0,0,1,.56-.19,4,4,0,0,1,.47-.22l.36-.07a1.29,1.29,0,0,1,.7-.31v0l.84-.31A4,4,0,0,0,121.8,18.43Z"/><line class="cls-1" x1="97.26" y1="57.37" x2="97.26" y2="56.56"/><line class="cls-1" x1="94.07" y1="61.79" x2="83.99" y2="61.79"/><line class="cls-1" x1="94.07" y1="56.78" x2="94.07" y2="61.79"/><line class="cls-1" x1="33.2" y1="56.78" x2="94.07" y2="56.78"/><line class="cls-1" x1="76.56" y1="61.79" x2="33.2" y2="61.79"/><line class="cls-1" x1="94.07" y1="53.51" x2="33.2" y2="53.51"/></g></g></svg>